<svg width="80" height="80" viewBox="0 0 120 120" xmlns="http://www.w3.org/2000/svg">
  <defs>
    <linearGradient id="redGradMineOnly" x1="22" y1="14" x2="98" y2="108" gradientUnits="userSpaceOnUse">
      <stop offset="0" stop-color="#FF3B35"/>
      <stop offset="1" stop-color="#B91518"/>
    </linearGradient>

    <linearGradient id="darkGradMineOnly" x1="30" y1="18" x2="92" y2="106" gradientUnits="userSpaceOnUse">
      <stop offset="0" stop-color="#2A2A2E"/>
      <stop offset="1" stop-color="#151517"/>
    </linearGradient>

    <filter id="shadowMineOnly" x="-20%" y="-20%" width="140%" height="140%">
      <feDropShadow dx="0" dy="6" stdDeviation="8" flood-color="#000000" flood-opacity="0.35"/>
    </filter>
  </defs>

  <rect x="10" y="10" width="100" height="100" rx="26" fill="url(#darkGradMineOnly)" filter="url(#shadowMineOnly)"/>
  <circle cx="60" cy="60" r="34" fill="#FF2D2D" opacity="0.14"/>
  <circle cx="60" cy="60" r="29" fill="url(#redGradMineOnly)"/>

  <circle cx="60" cy="53" r="10" fill="#FFFFFF"/>
  <path d="M43 78C43 69.7 50.2 63 59 63H61C69.8 63 77 69.7 77 78V79C77 80.7 75.7 82 74 82H46C44.3 82 43 80.7 43 79V78Z"
        fill="#FFFFFF"/>

  <circle cx="47" cy="46" r="3" fill="#FFFFFF" opacity="0.7"/>
</svg>